<?xml version="1.0" encoding="UTF-8" standalone="no"?>
<!DOCTYPE svg PUBLIC "-//W3C//DTD SVG 1.1//EN"
 "http://www.w3.org/Graphics/SVG/1.1/DTD/svg11.dtd">
<!-- Generated by graphviz version 2.26.3 (20100126.1600)
 -->
<!-- Title: G Pages: 1 -->
<svg width="144pt" height="390pt"
 viewBox="0.00 0.00 144.00 390.00" xmlns="http://www.w3.org/2000/svg" xmlns:xlink="http://www.w3.org/1999/xlink">
<g id="graph1" class="graph" transform="scale(1 1) rotate(0) translate(4 386)">
<title>G</title>
<polygon fill="white" stroke="white" points="-4,5 -4,-386 141,-386 141,5 -4,5"/>
<g id="graph2" class="cluster"><title>cluster_Global</title>
<polyline fill="none" stroke="gray" points="20,-8 116,-8 "/>
<path fill="none" stroke="gray" d="M116,-8C122,-8 128,-14 128,-20"/>
<polyline fill="none" stroke="gray" points="128,-20 128,-362 "/>
<path fill="none" stroke="gray" d="M128,-362C128,-368 122,-374 116,-374"/>
<polyline fill="none" stroke="gray" points="116,-374 20,-374 "/>
<path fill="none" stroke="gray" d="M20,-374C14,-374 8,-368 8,-362"/>
<polyline fill="none" stroke="gray" points="8,-362 8,-20 "/>
<path fill="none" stroke="gray" d="M8,-20C8,-14 14,-8 20,-8"/>
<text text-anchor="middle" x="68" y="-360.1" font-family="Times Roman,serif" font-size="11.00" fill="gray">\</text>
</g>
<g id="graph3" class="cluster"><title>cluster_\VCloud</title>
<polyline fill="none" stroke="gray" points="28,-16 108,-16 "/>
<path fill="none" stroke="gray" d="M108,-16C114,-16 120,-22 120,-28"/>
<polyline fill="none" stroke="gray" points="120,-28 120,-332 "/>
<path fill="none" stroke="gray" d="M120,-332C120,-338 114,-344 108,-344"/>
<polyline fill="none" stroke="gray" points="108,-344 28,-344 "/>
<path fill="none" stroke="gray" d="M28,-344C22,-344 16,-338 16,-332"/>
<polyline fill="none" stroke="gray" points="16,-332 16,-28 "/>
<path fill="none" stroke="gray" d="M16,-28C16,-22 22,-16 28,-16"/>
<text text-anchor="middle" x="68" y="-330.1" font-family="Times Roman,serif" font-size="11.00" fill="gray">VCloud</text>
</g>
<g id="graph4" class="cluster"><title>cluster_\VCloud\Helpers</title>
<polyline fill="none" stroke="gray" points="36,-24 100,-24 "/>
<path fill="none" stroke="gray" d="M100,-24C106,-24 112,-30 112,-36"/>
<polyline fill="none" stroke="gray" points="112,-36 112,-302 "/>
<path fill="none" stroke="gray" d="M112,-302C112,-308 106,-314 100,-314"/>
<polyline fill="none" stroke="gray" points="100,-314 36,-314 "/>
<path fill="none" stroke="gray" d="M36,-314C30,-314 24,-308 24,-302"/>
<polyline fill="none" stroke="gray" points="24,-302 24,-36 "/>
<path fill="none" stroke="gray" d="M24,-36C24,-30 30,-24 36,-24"/>
<text text-anchor="middle" x="68" y="-300.1" font-family="Times Roman,serif" font-size="11.00" fill="gray">Helpers</text>
</g>
<!-- \\VCloud\\Helpers\\Exception -->
<g id="node4" class="node"><title>\\VCloud\\Helpers\\Exception</title>
<polygon fill="none" stroke="black" points="103,-284 33,-284 33,-248 103,-248 103,-284"/>
<text text-anchor="middle" x="68" y="-263.1" font-family="Times Roman,serif" font-size="11.00">Exception</text>
</g>
<!-- \\VCloud\\Helpers\\Metadata -->
<g id="node5" class="node"><title>\\VCloud\\Helpers\\Metadata</title>
<polygon fill="none" stroke="black" points="102,-230 34,-230 34,-194 102,-194 102,-230"/>
<text text-anchor="middle" x="68" y="-209.1" font-family="Times Roman,serif" font-size="11.00">Metadata</text>
</g>
<!-- \\VCloud\\Helpers\\Query -->
<g id="node6" class="node"><title>\\VCloud\\Helpers\\Query</title>
<polygon fill="none" stroke="black" points="95,-176 41,-176 41,-140 95,-140 95,-176"/>
<text text-anchor="middle" x="68" y="-155.1" font-family="Times Roman,serif" font-size="11.00">Query</text>
</g>
<!-- \\VCloud\\Helpers\\Right -->
<g id="node7" class="node"><title>\\VCloud\\Helpers\\Right</title>
<polygon fill="none" stroke="black" points="95,-122 41,-122 41,-86 95,-86 95,-122"/>
<text text-anchor="middle" x="68" y="-101.1" font-family="Times Roman,serif" font-size="11.00">Right</text>
</g>
<!-- \\VCloud\\Helpers\\Service -->
<g id="node8" class="node"><title>\\VCloud\\Helpers\\Service</title>
<polygon fill="none" stroke="black" points="96,-68 40,-68 40,-32 96,-32 96,-68"/>
<text text-anchor="middle" x="68" y="-47.1" font-family="Times Roman,serif" font-size="11.00">Service</text>
</g>
</g>
</svg>
