<?xml version="1.0" encoding="UTF-8" standalone="no"?>
<!DOCTYPE svg PUBLIC "-//W3C//DTD SVG 1.1//EN"
 "http://www.w3.org/Graphics/SVG/1.1/DTD/svg11.dtd">
<!-- Generated by graphviz version 2.26.3 (20100126.1600)
 -->
<!-- Title: G Pages: 1 -->
<svg width="138pt" height="387pt"
 viewBox="0.00 0.00 138.00 387.00" xmlns="http://www.w3.org/2000/svg" xmlns:xlink="http://www.w3.org/1999/xlink">
<g id="graph1" class="graph" transform="scale(1 1) rotate(0) translate(4 383)">
<title>G</title>
<polygon fill="white" stroke="white" points="-4,5 -4,-383 135,-383 135,5 -4,5"/>
<g id="graph2" class="cluster"><title>cluster_Global</title>
<polyline fill="none" stroke="gray" points="20,-8 110,-8 "/>
<path fill="none" stroke="gray" d="M110,-8C116,-8 122,-14 122,-20"/>
<polyline fill="none" stroke="gray" points="122,-20 122,-359 "/>
<path fill="none" stroke="gray" d="M122,-359C122,-365 116,-371 110,-371"/>
<polyline fill="none" stroke="gray" points="110,-371 20,-371 "/>
<path fill="none" stroke="gray" d="M20,-371C14,-371 8,-365 8,-359"/>
<polyline fill="none" stroke="gray" points="8,-359 8,-20 "/>
<path fill="none" stroke="gray" d="M8,-20C8,-14 14,-8 20,-8"/>
<text text-anchor="middle" x="65" y="-357.1" font-family="Times Roman,serif" font-size="11.00" fill="gray">Global</text>
</g>
<g id="graph3" class="cluster"><title>cluster_\VCloud</title>
<polyline fill="none" stroke="gray" points="28,-16 102,-16 "/>
<path fill="none" stroke="gray" d="M102,-16C108,-16 114,-22 114,-28"/>
<polyline fill="none" stroke="gray" points="114,-28 114,-330 "/>
<path fill="none" stroke="gray" d="M114,-330C114,-336 108,-342 102,-342"/>
<polyline fill="none" stroke="gray" points="102,-342 28,-342 "/>
<path fill="none" stroke="gray" d="M28,-342C22,-342 16,-336 16,-330"/>
<polyline fill="none" stroke="gray" points="16,-330 16,-28 "/>
<path fill="none" stroke="gray" d="M16,-28C16,-22 22,-16 28,-16"/>
<text text-anchor="middle" x="65" y="-328.1" font-family="Times Roman,serif" font-size="11.00" fill="gray">VCloud</text>
</g>
<g id="graph4" class="cluster"><title>cluster_\VCloud\Helpers</title>
<polyline fill="none" stroke="gray" points="36,-24 94,-24 "/>
<path fill="none" stroke="gray" d="M94,-24C100,-24 106,-30 106,-36"/>
<polyline fill="none" stroke="gray" points="106,-36 106,-301 "/>
<path fill="none" stroke="gray" d="M106,-301C106,-307 100,-313 94,-313"/>
<polyline fill="none" stroke="gray" points="94,-313 36,-313 "/>
<path fill="none" stroke="gray" d="M36,-313C30,-313 24,-307 24,-301"/>
<polyline fill="none" stroke="gray" points="24,-301 24,-36 "/>
<path fill="none" stroke="gray" d="M24,-36C24,-30 30,-24 36,-24"/>
<text text-anchor="middle" x="65" y="-299.1" font-family="Times Roman,serif" font-size="11.00" fill="gray">Helpers</text>
</g>
<!-- \\VCloud\\Helpers\\Query -->
<g id="node4" class="node"><title>\\VCloud\\Helpers\\Query</title>
<polygon fill="none" stroke="black" points="92,-284 38,-284 38,-248 92,-248 92,-284"/>
<text text-anchor="middle" x="65" y="-262.6" font-family="Times Roman,serif" font-size="11.00">Query</text>
</g>
<!-- \\VCloud\\Helpers\\Metadata -->
<g id="node5" class="node"><title>\\VCloud\\Helpers\\Metadata</title>
<polygon fill="none" stroke="black" points="95,-230 35,-230 35,-194 95,-194 95,-230"/>
<text text-anchor="middle" x="65" y="-208.6" font-family="Times Roman,serif" font-size="11.00">Metadata</text>
</g>
<!-- \\VCloud\\Helpers\\Service -->
<g id="node6" class="node"><title>\\VCloud\\Helpers\\Service</title>
<polygon fill="none" stroke="black" points="92,-176 38,-176 38,-140 92,-140 92,-176"/>
<text text-anchor="middle" x="65" y="-154.6" font-family="Times Roman,serif" font-size="11.00">Service</text>
</g>
<!-- \\VCloud\\Helpers\\Right -->
<g id="node7" class="node"><title>\\VCloud\\Helpers\\Right</title>
<polygon fill="none" stroke="black" points="92,-122 38,-122 38,-86 92,-86 92,-122"/>
<text text-anchor="middle" x="65" y="-100.6" font-family="Times Roman,serif" font-size="11.00">Right</text>
</g>
<!-- \\VCloud\\Helpers\\Exception -->
<g id="node8" class="node"><title>\\VCloud\\Helpers\\Exception</title>
<polygon fill="none" stroke="black" points="97,-68 33,-68 33,-32 97,-32 97,-68"/>
<text text-anchor="middle" x="65" y="-46.6" font-family="Times Roman,serif" font-size="11.00">Exception</text>
</g>
</g>
</svg>
